<?xml version="1.0" encoding="utf-8"?>
<!-- Generator: Adobe Illustrator 16.0.0, SVG Export Plug-In . SVG Version: 6.00 Build 0)  -->
<!DOCTYPE svg PUBLIC "-//W3C//DTD SVG 1.1//EN" "http://www.w3.org/Graphics/SVG/1.1/DTD/svg11.dtd">
<svg version="1.1" id="Layer_1" xmlns="http://www.w3.org/2000/svg" xmlns:xlink="http://www.w3.org/1999/xlink" x="0px" y="0px"
	 width="310px" height="310px" viewBox="0 0 310 310" enable-background="new 0 0 310 310" xml:space="preserve">
<symbol  id="NewDiamond" viewBox="-96.783 -76.502 193.566 153.004">
	<g>
		<path fill="#FFFFFF" d="M-87.683,27.328l68.78,15.908l68.78,15.908l46.906-32.803L50.191-25.08L3.599-76.502l-45.641,51.915
			L-87.683,27.328z"/>
		<path fill="#FEFEFE" d="M-87.493,27.351l34.339,7.923l34.339,7.922l68.604,15.846l46.798-32.674L50.073-24.98L3.559-76.326
			l-45.526,51.838L-87.493,27.351z"/>
		<path fill="#FDFDFD" d="M-87.302,27.373l34.289,7.892l34.288,7.891l68.427,15.782l46.689-32.546L49.955-24.88L3.519-76.15
			l-45.411,51.762L-87.302,27.373z"/>
		<path fill="#FDFDFD" d="M-87.112,27.396l34.238,7.859l34.237,7.859l68.25,15.721l46.581-32.418L49.836-24.779L3.478-75.975
			l-45.295,51.686L-87.112,27.396z"/>
		<path fill="#FCFCFC" d="M-86.922,27.418l34.187,7.828l34.188,7.828l68.073,15.657l46.472-32.29l-46.279-51.12l-46.28-51.12
			l-45.18,51.608L-86.922,27.418z"/>
		<path fill="#FBFBFB" d="M-86.732,27.441l34.137,7.796l34.136,7.796l67.897,15.595l46.363-32.162L49.6-24.578L3.397-75.623
			l-45.064,51.532L-86.732,27.441z"/>
		<path fill="#FAFAFA" d="M-86.542,27.463l34.086,7.765l34.085,7.766l67.721,15.531l46.254-32.033L49.481-24.478L3.357-75.447
			l-44.95,51.455L-86.542,27.463z"/>
		<path fill="#F9F9F9" d="M-86.352,27.485l34.036,7.733l34.035,7.733l67.543,15.469l46.146-31.904L49.363-24.378L3.317-75.271
			l-44.834,51.379L-86.352,27.485z"/>
		<path fill="#F9F8F8" d="M-86.161,27.509l33.985,7.701l33.984,7.701l67.367,15.406l46.037-31.776L49.245-24.277L3.276-75.096
			l-44.718,51.302L-86.161,27.509z"/>
		<path fill="#F8F8F8" d="M-85.971,27.531l33.934,7.67l33.933,7.67l67.191,15.343l45.928-31.648l-45.89-50.742L3.236-74.92
			l-44.604,51.226L-85.971,27.531z"/>
		<path fill="#F7F7F7" d="M-85.78,27.554l33.883,7.638l33.883,7.639L49,58.11l45.82-31.52L49.008-24.077L3.196-74.744
			l-44.489,51.149L-85.78,27.554z"/>
		<path fill="#F6F6F6" d="M-85.59,27.576l33.832,7.606l33.833,7.607l66.837,15.217l45.711-31.392L48.89-23.977L3.155-74.568
			l-44.373,51.072L-85.59,27.576z"/>
		<path fill="#F5F5F5" d="M-85.4,27.599l33.782,7.575l33.782,7.575l66.66,15.154l45.603-31.263L48.771-23.876L3.115-74.393
			l-44.257,50.995L-85.4,27.599z"/>
		<path fill="#F4F4F4" d="M-85.21,27.621l33.731,7.544l33.731,7.543l66.484,15.093L94.23,26.665l-45.577-50.44L3.075-74.217
			l-44.142,50.919L-85.21,27.621z"/>
		<path fill="#F4F4F3" d="M-85.02,27.644l33.681,7.513l33.68,7.512l66.308,15.029L94.034,26.69l-45.5-50.365l-45.5-50.366
			l-44.027,50.842L-85.02,27.644z"/>
		<path fill="#F3F3F3" d="M-84.829,27.666l33.63,7.48l33.63,7.48l66.13,14.967l45.276-30.878L48.416-23.575L2.994-73.865
			L-40.917-23.1L-84.829,27.666z"/>
		<path fill="#F2F2F2" d="M-84.639,27.688l33.58,7.449l33.579,7.449L48.474,57.49l45.167-30.75L48.298-23.475L2.954-73.689
			L-40.843-23L-84.639,27.688z"/>
		<path fill="#F1F1F1" d="M-84.449,27.711l33.529,7.417l33.528,7.418l65.778,14.841l45.059-30.622L48.18-23.374L2.914-73.514
			l-43.681,50.612L-84.449,27.711z"/>
		<path fill="#F0F0F0" d="M-84.258,27.733l33.478,7.386l33.478,7.386l65.601,14.778L93.249,26.79L48.061-23.274L2.874-73.338
			l-43.566,50.536L-84.258,27.733z"/>
		<path fill="#F0EFEF" d="M-84.068,27.757l33.427,7.354l33.427,7.354L48.21,57.18l44.842-30.365L47.943-23.174L2.833-73.162
			l-43.451,50.459L-84.068,27.757z"/>
		<path fill="#EFEFEE" d="M-83.878,27.779l33.376,7.322l33.376,7.322l65.248,14.652L92.855,26.84L47.824-23.073L2.792-72.986
			l-43.335,50.383L-83.878,27.779z"/>
		<path fill="#EEEEEE" d="M-83.688,27.801l33.326,7.292l33.326,7.291l65.071,14.589l44.624-30.108L47.706-22.973L2.752-72.811
			l-43.22,50.306L-83.688,27.801z"/>
		<path fill="#EDEDED" d="M-83.497,27.824l33.275,7.26l33.274,7.259l64.894,14.526L92.463,26.89L47.587-22.872L2.712-72.635
			l-43.104,50.229L-83.497,27.824z"/>
		<path fill="#ECECEC" d="M-83.307,27.847l33.225,7.228l33.224,7.229l64.717,14.464l44.408-29.853L47.469-22.772L2.672-72.459
			l-42.989,50.153L-83.307,27.847z"/>
		<path fill="#ECEBEB" d="M-83.117,27.869l33.174,7.196l33.173,7.196l64.541,14.401L92.07,26.939L47.351-22.672L2.631-72.283
			l-42.874,50.076L-83.117,27.869z"/>
		<path fill="#EBEBEA" d="M-82.927,27.892l33.123,7.165l33.123,7.165L47.684,56.56l44.19-29.596L47.232-22.571L2.591-72.107
			l-42.759,50L-82.927,27.892z"/>
		<path fill="#EAEAE9" d="M-82.736,27.914l33.073,7.133l33.072,7.134l64.187,14.275l44.082-29.467l-44.563-49.46L2.551-71.932
			l-42.644,49.923L-82.736,27.914z"/>
		<path fill="#E9E9E9" d="M-82.546,27.937l33.021,7.102l33.021,7.102l64.011,14.213l43.973-29.339L46.996-22.371L2.511-71.756
			l-42.528,49.847L-82.546,27.937z"/>
		<path fill="#E8E8E8" d="M-82.355,27.959l32.971,7.07l32.971,7.07L47.42,56.249l43.864-29.21l-44.407-49.31L2.47-71.58
			l-42.413,49.77L-82.355,27.959z"/>
		<path fill="#E8E7E7" d="M-82.166,27.981l32.921,7.038l32.92,7.039l63.657,14.087l43.755-29.082L46.759-22.171L2.43-71.404
			l-42.298,49.693L-82.166,27.981z"/>
		<path fill="#E7E6E6" d="M-81.975,28.004l32.87,7.007l32.869,7.008l63.481,14.023l43.647-28.953L46.641-22.07L2.39-71.229
			l-42.183,49.616L-81.975,28.004z"/>
		<path fill="#E6E6E5" d="M-81.785,28.026l32.819,6.976l32.819,6.976l63.304,13.961l43.538-28.825L46.522-21.97L2.349-71.053
			l-42.067,49.54L-81.785,28.026z"/>
		<path fill="#E5E5E4" d="M-81.595,28.049l32.769,6.944l32.768,6.943l63.127,13.898l43.429-28.696L46.404-21.869L2.309-70.877
			l-41.952,49.464L-81.595,28.049z"/>
		<path fill="#E4E4E4" d="M-81.404,28.071l32.718,6.913l32.717,6.912l62.951,13.835l43.321-28.568L46.286-21.769L2.268-70.7
			l-41.836,49.386L-81.404,28.071z"/>
		<path fill="#E4E3E3" d="M-81.214,28.095l32.667,6.881l32.667,6.88l62.774,13.773l43.212-28.44L46.167-21.668L2.228-70.525
			l-41.721,49.31L-81.214,28.095z"/>
		<path fill="#E3E2E2" d="M-81.024,28.116l32.617,6.85l32.616,6.85l62.598,13.71L89.91,27.213L46.049-21.568L2.188-70.35
			l-41.606,49.233L-81.024,28.116z"/>
		<path fill="#E2E1E1" d="M-80.833,28.14l32.566,6.817l32.565,6.817l62.421,13.647l42.994-28.185L45.931-21.468L2.147-70.174
			l-41.49,49.156L-80.833,28.14z"/>
		<path fill="#E1E1E0" d="M-80.643,28.162l32.515,6.786l32.515,6.786l62.244,13.584l42.886-28.056l-43.704-48.63L2.107-69.998
			l-41.375,49.08L-80.643,28.162z"/>
		<path fill="#E0E0DF" d="M-80.453,28.185l32.465,6.754l32.463,6.755l62.068,13.521l42.778-27.927L45.694-21.268L2.067-69.821
			l-41.26,49.003L-80.453,28.185z"/>
		<path fill="#DFDFDF" d="M-80.263,28.207l32.414,6.723l32.414,6.723l61.891,13.46l42.669-27.8L45.576-21.167L2.026-69.646
			L-39.118-20.72L-80.263,28.207z"/>
		<path fill="#DFDEDE" d="M-80.072,28.229l32.363,6.691l32.363,6.691l61.714,13.396l42.56-27.671L45.457-21.066L1.986-69.471
			l-41.03,48.851L-80.072,28.229z"/>
		<path fill="#DEDDDD" d="M-79.882,28.252l32.312,6.66l32.313,6.659L46.28,54.905l42.451-27.543L45.339-20.966L1.946-69.294
			l-40.915,48.772L-79.882,28.252z"/>
		<path fill="#DDDDDC" d="M-79.692,28.274l32.262,6.628l32.261,6.628l61.361,13.271l42.343-27.414L45.221-20.865L1.905-69.119
			l-40.798,48.696L-79.692,28.274z"/>
		<path fill="#DCDCDB" d="M-79.502,28.297l32.211,6.597l32.21,6.597l61.185,13.208l42.234-27.286L45.102-20.766L1.865-68.943
			l-40.684,48.62L-79.502,28.297z"/>
		<path fill="#DBDBDA" d="M-79.312,28.319l32.16,6.565l32.16,6.564l61.008,13.146l42.125-27.158L44.984-20.665L1.825-68.768
			l-40.569,48.544L-79.312,28.319z"/>
		<path fill="#DBDADA" d="M-79.121,28.343l32.109,6.533l32.109,6.533l60.831,13.082l42.017-27.029l-43.08-48.026L1.784-68.592
			l-40.452,48.467L-79.121,28.343z"/>
		<path fill="#DAD9D9" d="M-78.931,28.364l32.059,6.502l32.059,6.502l60.655,13.02l41.908-26.9L44.747-20.465L1.744-68.415
			l-40.337,48.39L-78.931,28.364z"/>
		<path fill="#D9D8D8" d="M-78.741,28.388l32.008,6.47l32.008,6.471l60.478,12.956l41.799-26.772L44.628-20.364L1.704-68.24
			l-40.223,48.314L-78.741,28.388z"/>
		<path fill="#D8D8D7" d="M-78.551,28.41l31.958,6.438l31.957,6.438l60.302,12.894l41.69-26.645l-42.846-47.8L1.664-68.064
			l-40.107,48.237L-78.551,28.41z"/>
		<path fill="#D7D7D6" d="M-78.36,28.433l31.907,6.406l31.906,6.408l60.125,12.831L87.16,27.562L44.392-20.163L1.624-67.888
			l-39.992,48.16L-78.36,28.433z"/>
		<path fill="#D7D6D5" d="M-78.17,28.455l31.856,6.375l31.856,6.376L45.49,53.975l41.474-26.389l-42.69-47.648L1.583-67.713
			l-39.876,48.084L-78.17,28.455z"/>
		<path fill="#D6D5D5" d="M-77.98,28.478l31.806,6.344l31.805,6.344l59.771,12.706l41.365-26.26L44.155-19.963L1.542-67.536
			L-38.219-19.53L-77.98,28.478z"/>
		<path fill="#D5D4D4" d="M-77.79,28.5l31.755,6.313l31.754,6.313l59.595,12.643l41.256-26.131L44.037-19.862L1.502-67.361
			l-39.646,47.931L-77.79,28.5z"/>
		<path fill="#D4D4D3" d="M-77.599,28.522l31.704,6.281l31.704,6.28l59.418,12.58l41.148-26.003L43.918-19.762L1.462-67.186
			l-39.531,47.854L-77.599,28.522z"/>
		<path fill="#D3D3D2" d="M-77.409,28.545l31.653,6.249l31.653,6.25L45.14,53.561l41.039-25.874L43.8-19.662L1.422-67.009
			l-39.416,47.776L-77.409,28.545z"/>
		<path fill="#D3D2D1" d="M-77.218,28.567l31.603,6.218l31.603,6.218l59.064,12.454l40.93-25.746l-42.3-47.272l-42.3-47.272
			l-39.3,47.701L-77.218,28.567z"/>
		<path fill="#D2D1D0" d="M-77.028,28.59l31.552,6.187l31.552,6.187l58.888,12.391l40.821-25.618L43.563-19.461L1.341-66.657
			l-39.185,47.623L-77.028,28.59z"/>
		<path fill="#D1D0D0" d="M-76.838,28.612l31.501,6.154l31.501,6.155L44.876,53.25l40.713-25.489L43.445-19.36L1.301-66.481
			l-39.069,47.547L-76.838,28.612z"/>
		<path fill="#D0CFCF" d="M-76.647,28.635l31.45,6.123l31.451,6.124l58.535,12.265l40.604-25.36L43.327-19.261L1.261-66.307
			l-38.955,47.471L-76.647,28.635z"/>
		<path fill="#CFCFCE" d="M-76.458,28.657l31.4,6.092l31.399,6.092l58.358,12.203l40.496-25.233L43.208-19.16L1.22-66.13
			l-38.838,47.394L-76.458,28.657z"/>
		<path fill="#CFCECD" d="M-76.268,28.681l31.35,6.06l31.35,6.06L44.613,52.94L85,27.835L43.09-19.06L1.18-65.955l-38.724,47.317
			L-76.268,28.681z"/>
		<path fill="#CECDCC" d="M-76.077,28.702l31.299,6.028l31.299,6.029l58.005,12.077L84.804,27.86L42.972-18.959L1.14-65.778
			l-38.608,47.24L-76.077,28.702z"/>
		<path fill="#CDCCCB" d="M-75.887,28.726l31.249,5.996l31.248,5.997l57.828,12.015l40.17-24.849L42.854-18.859L1.099-65.603
			l-38.493,47.164L-75.887,28.726z"/>
		<path fill="#CCCBCB" d="M-75.696,28.748l31.197,5.965l31.197,5.966L44.35,52.63l40.061-24.72L42.735-18.759L1.059-65.428
			L-37.319-18.34L-75.696,28.748z"/>
		<path fill="#CBCBCA" d="M-75.506,28.771l31.147,5.934l31.146,5.934l57.475,11.889l39.952-24.592L42.617-18.658L1.019-65.251
			l-38.262,47.01L-75.506,28.771z"/>
		<path fill="#CACAC9" d="M-75.316,28.793l31.097,5.901l31.096,5.902l57.298,11.826L84.019,27.96L42.498-18.558L0.978-65.075
			l-38.147,46.934L-75.316,28.793z"/>
		<path fill="#CAC9C8" d="M-75.126,28.815l31.046,5.87l31.045,5.87l57.122,11.764l39.735-24.334L42.38-18.458L0.938-64.899
			l-38.031,46.857L-75.126,28.815z"/>
		<path fill="#C9C8C7" d="M-74.936,28.838l30.995,5.839l30.995,5.839l56.945,11.7L83.625,28.01L42.262-18.356L0.897-64.724
			l-37.917,46.78L-74.936,28.838z"/>
		<path fill="#C8C7C6" d="M-74.745,28.86l30.944,5.807l30.944,5.808l56.768,11.638l39.518-24.078L42.144-18.257L0.857-64.549
			l-37.802,46.705L-74.745,28.86z"/>
		<path fill="#C7C6C6" d="M-74.555,28.883l30.894,5.775l30.893,5.776L43.823,52.01l39.409-23.95L42.025-18.156L0.817-64.372
			l-37.686,46.627L-74.555,28.883z"/>
		<path fill="#C6C6C5" d="M-74.365,28.905l30.843,5.744l30.842,5.744l56.415,11.513l39.301-23.822L41.907-18.057l-41.13-46.14
			l-37.571,46.551L-74.365,28.905z"/>
		<path fill="#C6C5C4" d="M-74.174,28.929l30.792,5.712l30.792,5.713l56.238,11.449L82.84,28.109L41.788-17.956L0.736-64.021
			l-37.456,46.475L-74.174,28.929z"/>
		<path fill="#C5C4C3" d="M-73.984,28.95l30.741,5.682l30.741,5.681L43.56,51.699l39.083-23.565L41.67-17.855L0.696-63.845
			l-37.341,46.397L-73.984,28.95z"/>
		<path fill="#C4C3C2" d="M-73.794,28.974l30.691,5.648l30.69,5.65l55.885,11.323l38.975-23.437L41.552-17.755L0.656-63.669
			l-37.225,46.32L-73.794,28.974z"/>
		<path fill="#C3C2C1" d="M-73.604,28.996l30.64,5.617l30.64,5.618l55.708,11.261l38.866-23.309L41.433-17.655L0.615-63.493
			l-37.109,46.244L-73.604,28.996z"/>
		<path fill="#C2C2C1" d="M-73.413,29.019l30.589,5.586l30.589,5.586L43.297,51.39l38.757-23.181L41.315-17.555L0.575-63.317
			l-36.994,46.168L-73.413,29.019z"/>
		<path fill="#C2C1C0" d="M-73.223,29.04l30.539,5.555l30.539,5.556l55.354,11.136l38.648-23.053L41.196-17.454L0.534-63.142
			l-36.879,46.091L-73.223,29.04z"/>
		<path fill="#C1C0BF" d="M-73.033,29.063l30.488,5.523l30.488,5.522l55.178,11.073l38.541-22.924L41.078-17.354L0.494-62.966
			L-36.27-16.951L-73.033,29.063z"/>
		<path fill="#C0BFBE" d="M-72.843,29.086l30.438,5.491l30.437,5.492l55.002,11.01l38.431-22.796L40.959-17.253L0.454-62.79
			l-36.648,45.938L-72.843,29.086z"/>
		<path fill="#BFBEBD" d="M-72.652,29.108l30.387,5.46l30.387,5.46l54.825,10.947l38.322-22.667L40.842-17.153L0.413-62.614
			l-36.532,45.861L-72.652,29.108z"/>
		<path fill="#BEBDBC" d="M-72.462,29.131l30.336,5.429l30.336,5.429l54.648,10.884l38.214-22.539l-40.35-45.386L0.373-62.438
			l-36.417,45.784L-72.462,29.131z"/>
		<path fill="#BEBDBC" d="M-72.271,29.153l30.285,5.396l30.285,5.397l54.472,10.821l38.105-22.41L40.604-16.952L0.333-62.263
			L-35.97-16.555L-72.271,29.153z"/>
		<path fill="#BDBCBB" d="M-72.082,29.176l30.235,5.365l30.234,5.366l54.295,10.758L80.68,28.383L40.486-16.853L0.292-62.087
			l-36.187,45.631L-72.082,29.176z"/>
		<path fill="#BCBBBA" d="M-71.892,29.198l30.185,5.334l30.184,5.334l54.118,10.695l37.888-22.153l-40.115-45.16L0.252-61.911
			l-36.072,45.555L-71.892,29.198z"/>
		<path fill="#BBBAB9" d="M-71.701,29.221l30.134,5.303l30.133,5.302l53.942,10.633l37.779-22.025L40.25-16.651L0.212-61.735
			l-35.956,45.479L-71.701,29.221z"/>
		<path fill="#BAB9B8" d="M-71.511,29.243l30.083,5.271l30.082,5.271L42.42,50.354l37.671-21.896l-39.96-45.009L0.172-61.56
			L-35.67-16.158L-71.511,29.243z"/>
		<path fill="#BAB9B7" d="M-71.321,29.266l30.032,5.239l30.032,5.239l53.589,10.507l37.562-21.769L40.013-16.45L0.131-61.384
			L-35.595-16.06L-71.321,29.266z"/>
		<path fill="#B9B8B7" d="M-71.13,29.288l29.982,5.208l29.98,5.208l53.412,10.443l37.453-21.641L39.895-16.351L0.091-61.208
			L-35.52-15.96L-71.13,29.288z"/>
		<path fill="#B8B7B6" d="M-70.94,29.312l29.93,5.176l29.931,5.176l53.235,10.381l37.345-21.512L39.776-16.25L0.051-61.032
			L-35.444-15.86L-70.94,29.312z"/>
		<path fill="#B7B6B5" d="M-70.75,29.334l29.88,5.144l29.88,5.145L42.068,49.94l37.236-21.383L39.658-16.149L0.011-60.856
			l-35.38,45.095L-70.75,29.334z"/>
		<path fill="#B6B5B4" d="M-70.56,29.356l29.83,5.112l29.829,5.112l52.882,10.257l37.127-21.256L39.54-16.05L-0.03-60.681
			l-35.265,45.019L-70.56,29.356z"/>
		<path fill="#B5B4B3" d="M-70.369,29.379l29.778,5.081l29.778,5.081l52.706,10.193l37.019-21.127L39.421-15.949L-0.07-60.505
			L-35.22-15.563L-70.369,29.379z"/>
		<path fill="#B5B4B3" d="M-70.179,29.401l29.728,5.05l29.728,5.05l52.529,10.13l36.91-20.999l-39.413-44.48L-0.11-60.329
			l-35.035,44.865L-70.179,29.401z"/>
		<path fill="#B4B3B2" d="M-69.988,29.424l29.677,5.018l29.677,5.019l52.353,10.067l36.802-20.87L39.185-15.749L-0.15-60.153
			l-34.919,44.789L-69.988,29.424z"/>
		<path fill="#B3B2B1" d="M-69.798,29.446l29.626,4.986l29.626,4.986L41.63,49.424l36.693-20.742L39.065-15.647l-39.257-44.33
			l-34.804,44.712L-69.798,29.446z"/>
		<path fill="#B2B1B0" d="M-69.608,29.469l29.576,4.955l29.576,4.955l51.999,9.942l36.584-20.615L38.948-15.548L-0.231-59.802
			L-34.92-15.167L-69.608,29.469z"/>
		<path fill="#B1B0AF" d="M-69.418,29.491l29.525,4.924l29.525,4.923l51.822,9.88L77.93,28.731L38.829-15.447L-0.271-59.626
			l-34.574,44.559L-69.418,29.491z"/>
		<path fill="#B1AFAE" d="M-69.228,29.514l29.475,4.892l29.475,4.893l51.646,9.816l36.367-20.357L38.711-15.347L-0.313-59.45
			L-34.77-14.969L-69.228,29.514z"/>
		<path fill="#B0AFAE" d="M-69.037,29.536l29.424,4.86l29.424,4.86l51.469,9.754l36.258-20.229L38.593-15.247L-0.353-59.274
			l-34.342,44.405L-69.037,29.536z"/>
		<path fill="#AFAEAD" d="M-68.847,29.56l29.373,4.828l29.373,4.828l51.292,9.691l36.149-20.102L38.475-15.146L-0.393-59.099
			L-34.62-14.77L-68.847,29.56z"/>
		<path fill="#AEADAC" d="M-68.657,29.582l29.323,4.796l29.323,4.798l51.115,9.628l36.041-19.973L38.355-15.046L-0.433-58.923
			l-34.112,44.252L-68.657,29.582z"/>
		<path fill="#ADACAB" d="M-68.467,29.604l29.272,4.765l29.271,4.766L41.016,48.7l35.932-19.845l-38.71-43.802L-0.474-58.747
			L-34.47-14.571L-68.467,29.604z"/>
		<path fill="#ADABAA" d="M-68.276,29.626l29.221,4.734l29.221,4.734l50.763,9.502l35.824-19.716L38.119-14.845L-0.514-58.571
			l-33.881,44.099L-68.276,29.626z"/>
		<path fill="#ACABA9" d="M-68.086,29.649l29.17,4.702l29.17,4.702l50.586,9.439l35.714-19.587L38-14.745l-38.555-43.65
			L-34.32-14.374L-68.086,29.649z"/>
		<path fill="#ABAAA9" d="M-67.896,29.671l29.121,4.672l29.119,4.671l50.409,9.376l35.606-19.459L37.883-14.645L-0.594-58.22
			l-33.651,43.945L-67.896,29.671z"/>
		<path fill="#AAA9A8" d="M-67.706,29.694l29.069,4.639l29.069,4.64l50.232,9.314l35.498-19.331l-38.399-43.5l-38.398-43.5
			L-34.17-14.175L-67.706,29.694z"/>
		<path fill="#A9A8A7" d="M-67.515,29.717l29.019,4.607l29.018,4.608l50.056,9.251L75.966,28.98L37.646-14.444l-38.32-43.424
			l-33.421,43.793L-67.515,29.717z"/>
		<path fill="#A9A7A6" d="M-67.325,29.739l28.967,4.576l28.968,4.576l49.879,9.188l35.28-19.075L37.527-14.344L-0.715-57.692
			L-34.02-13.977L-67.325,29.739z"/>
		<path fill="#A8A6A5" d="M-67.135,29.762l28.917,4.544l28.917,4.545l49.702,9.126L75.574,29.03L37.409-14.243L-0.756-57.517
			l-33.189,43.639L-67.135,29.762z"/>
		<path fill="#A7A6A4" d="M-66.944,29.784l28.866,4.513l28.866,4.514l49.525,9.063l35.063-18.817L37.291-14.144L-0.796-57.341
			L-33.87-13.778L-66.944,29.784z"/>
		<path fill="#A6A5A4" d="M-66.754,29.807l28.815,4.481l28.815,4.481l49.349,9L75.181,29.08L37.172-14.042L-0.836-57.165
			l-32.959,43.486L-66.754,29.807z"/>
		<path fill="#A5A4A3" d="M-66.563,29.829l28.765,4.45l28.765,4.45l49.173,8.937l34.846-18.562L37.054-13.942L-0.877-56.989
			L-33.72-13.58L-66.563,29.829z"/>
		<path fill="#A5A3A2" d="M-66.374,29.852l28.714,4.418l28.714,4.419l48.996,8.874L74.788,29.13L36.936-13.842L-0.917-56.813
			L-33.646-13.48L-66.374,29.852z"/>
		<path fill="#A4A2A1" d="M-66.184,29.874l28.664,4.387l28.664,4.388l48.819,8.811l34.629-18.305L36.817-13.741L-0.957-56.638
			L-33.57-13.382L-66.184,29.874z"/>
		<path fill="#A3A2A0" d="M-65.993,29.897l28.613,4.354l28.613,4.355l48.642,8.748l34.52-18.176L36.699-13.642l-37.697-42.82
			l-32.498,43.18L-65.993,29.897z"/>
		<path fill="#A2A19F" d="M-65.803,29.919l28.563,4.324l28.562,4.323l48.466,8.687l34.411-18.049L36.581-13.541L-1.038-56.286
			l-32.383,43.104L-65.803,29.919z"/>
		<path fill="#A1A09F" d="M-65.612,29.942l28.511,4.291l28.512,4.293L39.7,47.149l34.303-17.92L36.462-13.44l-37.54-42.67
			l-32.268,43.026L-65.612,29.942z"/>
		<path fill="#A09F9E" d="M-65.423,29.965l28.462,4.26l28.46,4.261l48.113,8.561l34.194-17.791L36.344-13.341L-1.119-55.935
			l-32.152,42.949L-65.423,29.965z"/>
		<path fill="#A09E9D" d="M-65.232,29.987l28.411,4.229l28.409,4.229l47.937,8.498l34.085-17.663L36.226-13.239l-37.385-42.52
			l-32.036,42.873L-65.232,29.987z"/>
		<path fill="#9F9D9C" d="M-65.042,30.01l28.36,4.196l28.36,4.198l47.759,8.435l33.977-17.535L36.107-13.14L-1.199-55.583
			l-31.922,42.796L-65.042,30.01z"/>
		<path fill="#9E9D9B" d="M-64.852,30.032l28.309,4.165l28.309,4.166l47.583,8.372l33.868-17.406L35.989-13.039L-1.24-55.407
			l-31.806,42.72L-64.852,30.032z"/>
		<path fill="#9D9C9A" d="M-64.662,30.055l28.258,4.134l28.259,4.135l47.405,8.309l33.76-17.278l-37.15-42.292L-1.28-55.231
			l-31.691,42.644L-64.662,30.055z"/>
		<path fill="#9C9B9A" d="M-64.471,30.077l28.208,4.103l28.208,4.103l47.229,8.246l33.651-17.149L35.752-12.839L-1.32-55.056
			l-31.575,42.566L-64.471,30.077z"/>
		<path fill="#9C9A99" d="M-64.281,30.1l28.157,4.071l28.157,4.07l47.053,8.184l33.542-17.021L35.634-12.738L-1.36-54.88
			l-31.46,42.49L-64.281,30.1z"/>
		<path fill="#9B9998" d="M-64.09,30.122l28.106,4.039l28.106,4.04l46.876,8.12l33.434-16.893L35.516-12.638L-1.4-54.704
			l-31.346,42.413L-64.09,30.122z"/>
		<path fill="#9A9997" d="M-63.9,30.146l28.056,4.007l28.056,4.009l46.699,8.058l33.325-16.766L35.396-12.538l-36.838-41.99
			l-31.229,42.336L-63.9,30.146z"/>
		<path fill="#999896" d="M-63.71,30.167l28.005,3.977L-7.7,38.12l46.522,7.995l33.216-16.637L35.279-12.438l-36.76-41.915
			l-31.114,42.26L-63.71,30.167z"/>
		<path fill="#989795" d="M-63.52,30.19l27.954,3.943l27.954,3.945l46.346,7.933l33.107-16.509L35.16-12.337l-36.682-41.84
			l-30.999,42.184L-63.52,30.19z"/>
		<path fill="#989695" d="M-63.329,30.212l27.903,3.914l27.903,3.912l46.169,7.87l32.999-16.38L35.042-12.237L-1.562-54.001
			l-30.884,42.106L-63.329,30.212z"/>
		<path fill="#979594" d="M-63.139,30.235l27.853,3.881l27.853,3.882l45.993,7.807l32.89-16.252L34.923-12.136L-1.603-53.825
			l-30.769,42.03L-63.139,30.235z"/>
		<path fill="#969493" d="M-62.949,30.258l27.803,3.85l27.802,3.851l45.816,7.743l32.781-16.124L34.805-12.036L-1.643-53.649
			l-30.653,41.953L-62.949,30.258z"/>
		<path fill="#959492" d="M-62.759,30.28l27.752,3.818l27.751,3.818l45.64,7.681l32.673-15.995l-36.37-41.538l-36.37-41.538
			l-30.538,41.877L-62.759,30.28z"/>
		<path fill="#949391" d="M-62.568,30.303l27.701,3.786l27.7,3.787l45.463,7.619L70.86,29.628L34.568-11.835L-1.724-53.298
			l-30.422,41.801L-62.568,30.303z"/>
		<path fill="#949290" d="M-62.378,30.325l27.65,3.755l27.65,3.756l45.287,7.556l32.455-15.739L34.45-11.734L-1.764-53.122
			l-30.308,41.724L-62.378,30.325z"/>
		<path fill="#939190" d="M-62.188,30.348l27.599,3.724l27.6,3.724l45.11,7.493l32.347-15.61L34.332-11.634L-1.804-52.946
			l-30.192,41.647L-62.188,30.348z"/>
		<path fill="#92908F" d="M-61.997,30.37l27.549,3.691L-6.9,37.755l44.933,7.43l32.238-15.482L34.213-11.534L-1.844-52.771
			L-31.921-11.2L-61.997,30.37z"/>
		<path fill="#91908E" d="M-61.807,30.393l27.498,3.66l27.498,3.661l44.756,7.367l32.129-15.354L34.095-11.434L-1.885-52.595
			l-29.961,41.493L-61.807,30.393z"/>
		<path fill="#908F8D" d="M-61.617,30.415l27.447,3.629l27.447,3.629l44.58,7.305l32.021-15.226L33.977-11.333L-1.925-52.419
			l-29.846,41.417L-61.617,30.415z"/>
		<path fill="#908E8C" d="M-61.427,30.438l27.397,3.598l27.396,3.598l44.403,7.241l31.912-15.097L33.858-11.233l-35.824-41.01
			l-29.731,41.34L-61.427,30.438z"/>
		<path fill="#8F8D8B" d="M-61.236,30.46l27.346,3.566l27.347,3.565l44.226,7.179l31.804-14.969L33.74-11.133L-2.006-52.067
			l-29.615,41.264L-61.236,30.46z"/>
		<path fill="#8E8C8B" d="M-61.046,30.482l27.295,3.534l27.295,3.535l44.05,7.115l31.695-14.84L33.622-11.032L-2.046-51.892
			l-29.5,41.188L-61.046,30.482z"/>
		<path fill="#8D8B8A" d="M-60.856,30.506l27.245,3.502l27.245,3.503l43.874,7.053l31.586-14.712l-35.59-40.783L-2.086-51.716
			l-29.385,41.111L-60.856,30.506z"/>
		<path fill="#8C8B89" d="M-60.666,30.528l27.194,3.471l27.194,3.472l43.696,6.989l31.477-14.584L33.385-10.831L-2.127-51.54
			l-29.27,41.034L-60.666,30.528z"/>
		<path fill="#8B8A88" d="M-60.476,30.551l27.144,3.439l27.144,3.439l43.52,6.927L68.7,29.901L33.267-10.731L-2.167-51.364
			l-29.154,40.957L-60.476,30.551z"/>
		<path fill="#8B8987" d="M-60.285,30.573l27.093,3.407L-6.1,37.389l43.343,6.864l31.26-14.326L33.148-10.631L-2.207-51.188
			l-29.039,40.881L-60.285,30.573z"/>
		<path fill="#8A8886" d="M-60.095,30.595l27.042,3.377l27.042,3.377l43.166,6.802l31.152-14.199L33.03-10.53L-2.248-51.013
			l-28.924,40.805L-60.095,30.595z"/>
		<path fill="#898786" d="M-59.905,30.618l26.992,3.344l26.991,3.346l42.989,6.739l31.043-14.07L32.912-10.431l-35.2-40.406
			l-28.808,40.728L-59.905,30.618z"/>
		<path fill="#888785" d="M-59.715,30.641l26.941,3.313l26.941,3.313l42.813,6.677l30.934-13.942L32.793-10.33L-2.328-50.661
			l-28.693,40.65L-59.715,30.641z"/>
		<path fill="#878684" d="M-59.524,30.663l26.891,3.281l26.89,3.282l42.637,6.613l30.825-13.813L32.675-10.229L-2.368-50.485
			L-30.946-9.911L-59.524,30.663z"/>
		<path fill="#878583" d="M-59.334,30.686l26.84,3.25l26.839,3.251l42.46,6.551l30.717-13.687l-34.965-40.18L-2.409-50.31
			L-30.872-9.812L-59.334,30.686z"/>
		<path fill="#868482" d="M-59.144,30.708l26.789,3.219l26.789,3.219l42.283,6.488l30.608-13.559L32.438-10.029L-2.449-50.134
			L-30.796-9.713L-59.144,30.708z"/>
		<path fill="#858381" d="M-58.953,30.73l26.738,3.188l26.737,3.187l42.106,6.426l30.5-13.43L32.32-9.929L-2.489-49.958
			L-30.722-9.613L-58.953,30.73z"/>
		<path fill="#848281" d="M-58.763,30.753l26.687,3.155l26.687,3.156l41.93,6.362l30.392-13.301L32.201-9.828L-2.53-49.782
			L-30.647-9.515L-58.763,30.753z"/>
		<path fill="#838280" d="M-58.573,30.776l26.636,3.123L-5.3,37.023l41.754,6.3L66.736,30.15L32.083-9.728L-2.57-49.606
			L-30.571-9.415L-58.573,30.776z"/>
		<path fill="#83817F" d="M-58.383,30.798l26.586,3.093l26.586,3.093l41.577,6.236L66.54,30.175L31.965-9.628L-2.61-49.431
			L-30.497-9.315L-58.383,30.798z"/>
		<path fill="#82807E" d="M-58.192,30.821l26.536,3.06l26.535,3.062l41.4,6.174L66.343,30.2L31.846-9.527L-2.651-49.255
			L-30.422-9.217L-58.192,30.821z"/>
		<path fill="#817F7D" d="M-58.002,30.843l26.484,3.029l26.484,3.029l41.224,6.111l29.957-12.787L31.728-9.427L-2.691-49.079
			L-30.347-9.118L-58.002,30.843z"/>
		<path fill="#807E7C" d="M-57.812,30.866l26.434,2.997l26.434,2.998l41.046,6.048L65.951,30.25L31.61-9.327L-2.731-48.903
			l-27.54,39.885L-57.812,30.866z"/>
		<path fill="#7F7E7C" d="M-57.622,30.889l26.383,2.966l26.383,2.967l40.871,5.984l29.738-12.531L31.491-9.227L-2.772-48.728
			L-30.197-8.92L-57.622,30.889z"/>
		<path fill="#7F7D7B" d="M-57.431,30.911l26.333,2.934l26.333,2.936l40.694,5.922L65.558,30.3L31.373-9.126L-2.813-48.552
			L-30.122-8.82L-57.431,30.911z"/>
		<path fill="#7E7C7A" d="M-57.241,30.934l26.282,2.903l26.282,2.902l40.517,5.86l29.522-12.275L31.254-9.025L-2.853-48.376
			L-30.047-8.722L-57.241,30.934z"/>
		<path fill="#7D7B79" d="M-57.051,30.956l26.231,2.871l26.231,2.871l40.34,5.798L65.165,30.35L31.136-8.925L-2.893-48.2
			l-27.08,39.578L-57.051,30.956z"/>
		<path fill="#7C7A78" d="M-56.86,30.979l26.181,2.84l26.18,2.84l40.164,5.734l29.305-12.019L31.018-8.825l-33.95-39.199
			L-29.896-8.522L-56.86,30.979z"/>
		<path fill="#7B7977" d="M-56.67,31.001l26.13,2.808l26.13,2.809l39.986,5.672l29.196-11.89L30.899-8.725L-2.974-47.849
			L-29.822-8.424L-56.67,31.001z"/>
		<path fill="#7B7977" d="M-56.48,31.023L-30.4,33.8l26.079,2.777l39.81,5.608l29.087-11.761L30.781-8.624L-3.014-47.673
			L-29.747-8.324L-56.48,31.023z"/>
		<path fill="#7A7876" d="M-56.29,31.046l26.029,2.745l26.028,2.745l39.634,5.546l28.979-11.633L30.663-8.524L-3.054-47.497
			L-29.672-8.226L-56.29,31.046z"/>
		<path fill="#797775" d="M-56.1,31.068l25.978,2.714l25.978,2.714l39.457,5.482l28.87-11.505L30.544-8.424L-3.094-47.321
			L-29.597-8.126L-56.1,31.068z"/>
		<path fill="#787674" d="M-55.909,31.091l25.927,2.682l25.928,2.683l39.28,5.42l28.761-11.376L30.426-8.323L-3.135-47.146
			L-29.522-8.027L-55.909,31.091z"/>
		<path fill="#777573" d="M-55.719,31.114l25.876,2.649l25.876,2.651l39.104,5.357l28.653-11.249L30.308-8.223L-3.175-46.97
			L-29.447-7.928L-55.719,31.114z"/>
		<path fill="#767472" d="M-55.528,31.137l25.826,2.618l25.826,2.619l38.927,5.295l28.544-11.12L30.189-8.122L-3.215-46.794
			L-29.372-7.829L-55.528,31.137z"/>
		<path fill="#767472" d="M-55.338,31.159l25.774,2.587l25.775,2.587l38.75,5.232l28.435-10.992L30.071-8.022L-3.256-46.618
			L-29.297-7.729L-55.338,31.159z"/>
		<path fill="#757371" d="M-55.148,31.181l25.725,2.557l25.724,2.556l38.574,5.169l28.327-10.863L29.953-7.922L-3.296-46.442
			L-29.222-7.63L-55.148,31.181z"/>
		<path fill="#747270" d="M-54.958,31.204l25.674,2.523l25.674,2.524l38.397,5.106l28.218-10.735L29.834-7.821l-33.17-38.445
			L-29.147-7.531L-54.958,31.204z"/>
		<path fill="#73716F" d="M-54.768,31.227l25.623,2.492l25.623,2.493l38.221,5.043l28.109-10.606L29.716-7.722L-3.377-46.091
			L-29.072-7.432L-54.768,31.227z"/>
		<path fill="#72706E" d="M-54.577,31.249l25.572,2.461l25.572,2.461l38.044,4.98l28.001-10.479L29.598-7.621L-3.417-45.915
			l-25.58,38.582L-54.577,31.249z"/>
		<path fill="#72706E" d="M-54.387,31.271l25.522,2.429l25.522,2.43l37.867,4.918l27.892-10.35L29.479-7.521L-3.457-45.739
			L-28.922-7.233L-54.387,31.271z"/>
		<path fill="#716F6D" d="M-54.197,31.294l25.471,2.397l25.471,2.398l37.691,4.854l27.783-10.221L29.361-7.42L-3.498-45.563
			l-25.35,38.429L-54.197,31.294z"/>
		<path fill="#706E6C" d="M-54.006,31.316l25.42,2.366l25.42,2.366l37.514,4.792l27.674-10.093L29.243-7.319L-3.538-45.388
			L-28.772-7.035L-54.006,31.316z"/>
		<path fill="#6F6D6B" d="M-53.816,31.339l25.37,2.334l25.37,2.336l37.337,4.729l27.566-9.965L29.124-7.22L-3.578-45.212
			L-28.697-6.937L-53.816,31.339z"/>
		<path fill="#6E6C6A" d="M-53.626,31.362l25.319,2.303l25.318,2.303l37.161,4.666l27.457-9.836L29.006-7.119L-3.618-45.036
			L-28.623-6.837L-53.626,31.362z"/>
		<path fill="#6E6B69" d="M-53.436,31.384l25.268,2.271l25.269,2.271l36.984,4.604l27.349-9.709L28.887-7.019L-3.659-44.86
			L-28.547-6.738L-53.436,31.384z"/>
		<path fill="#6D6B69" d="M-53.246,31.407l25.218,2.239l25.217,2.24l36.807,4.541l27.24-9.581L28.769-6.919L-3.699-44.685
			L-28.473-6.639L-53.246,31.407z"/>
		<path fill="#6C6A68" d="M-53.056,31.429l25.167,2.209l25.167,2.209l36.63,4.478l27.132-9.452l-32.39-37.69l-32.39-37.69
			L-28.397-6.54L-53.056,31.429z"/>
		<path fill="#6B6967" d="M-52.865,31.452l25.117,2.176l25.116,2.178l36.454,4.415l27.023-9.323L28.532-6.718L-3.78-44.333
			L-28.322-6.44L-52.865,31.452z"/>
		<path fill="#6A6866" d="M-52.675,31.475l25.066,2.145l25.065,2.146l36.276,4.353l26.915-9.195L28.414-6.617L-3.82-44.157
			L-28.248-6.341L-52.675,31.475z"/>
		<path fill="#6A6765" d="M-52.484,31.497l25.015,2.113l25.015,2.114l36.101,4.289l26.805-9.066L28.296-6.517L-3.86-43.98
			L-28.173-6.242L-52.484,31.497z"/>
		<path fill="#696764" d="M-52.294,31.52l24.964,2.081l24.964,2.083l35.924,4.227l26.696-8.938L28.177-6.417L-3.901-43.806
			L-28.098-6.143L-52.294,31.52z"/>
		<path fill="#686664" d="M-52.104,31.542l24.913,2.05l24.914,2.051l35.747,4.164l26.588-8.81l-32-37.313l-32-37.313L-28.022-6.044
			L-52.104,31.542z"/>
		<path fill="#676563" d="M-51.914,31.564l24.863,2.019l24.863,2.02l35.57,4.102l26.479-8.683L27.94-6.216L-3.981-43.454
			l-23.966,37.51L-51.914,31.564z"/>
		<path fill="#666462" d="M-51.724,31.587l24.813,1.987l24.813,1.987l35.394,4.039l26.371-8.554L27.822-6.116L-4.022-43.278
			L-27.873-5.846L-51.724,31.587z"/>
		<path fill="#666361" d="M-51.533,31.609l24.762,1.956l24.762,1.956l35.218,3.976l26.262-8.426L27.704-6.016L-4.063-43.102
			L-27.798-5.747L-51.533,31.609z"/>
		<path fill="#656260" d="M-51.343,31.632l24.711,1.924l24.711,1.925l35.041,3.913l26.153-8.297L27.585-5.915L-4.103-42.927
			l-23.62,37.279L-51.343,31.632z"/>
		<path fill="#64625F" d="M-51.153,31.654l24.661,1.893l24.66,1.894l34.864,3.85l26.045-8.169L27.467-5.814L-4.143-42.751
			L-27.648-5.548L-51.153,31.654z"/>
		<path fill="#63615F" d="M-50.962,31.677l24.61,1.861l24.61,1.861l34.687,3.787l25.936-8.041L27.349-5.714l-31.532-36.86
			l-23.39,37.126L-50.962,31.677z"/>
		<path fill="#62605E" d="M-50.772,31.699l24.559,1.83l24.559,1.829l34.511,3.725l25.828-7.912L27.23-5.614L-4.224-42.399
			L-27.498-5.35L-50.772,31.699z"/>
		<path fill="#615F5D" d="M-50.582,31.723l24.508,1.797l24.508,1.799l34.334,3.662l25.719-7.784L27.112-5.514l-31.376-36.71
			L-27.423-5.25L-50.582,31.723z"/>
		<path fill="#615E5C" d="M-50.392,31.745l24.458,1.766l24.458,1.767l34.158,3.6l25.61-7.656L26.994-5.413L-4.304-42.047
			L-27.348-5.151L-50.392,31.745z"/>
		<path fill="#605E5B" d="M-50.201,31.767l24.407,1.734l24.407,1.736l33.981,3.536l25.501-7.527L26.875-5.313l-31.22-36.56
			l-22.928,36.82L-50.201,31.767z"/>
		<path fill="#5F5D5A" d="M-50.011,31.79l24.356,1.703l24.356,1.703l33.804,3.474l25.393-7.399L26.757-5.213L-4.385-41.695
			L-27.198-4.953L-50.011,31.79z"/>
		<path fill="#5E5C5A" d="M-49.821,31.813l24.306,1.671l24.306,1.673l33.627,3.41l25.284-7.271L26.639-5.112L-4.425-41.521
			L-27.123-4.854L-49.821,31.813z"/>
		<path fill="#5D5B59" d="M-49.631,31.835l24.255,1.64l24.255,1.641l33.451,3.348l25.176-7.143L26.52-5.012L-4.465-41.345
			l-22.583,36.59L-49.631,31.835z"/>
		<path fill="#5D5A58" d="M-49.44,31.857l24.205,1.608l24.204,1.609l33.274,3.284l25.067-7.015L26.402-4.912L-4.506-41.168
			L-26.974-4.655L-49.44,31.857z"/>
		<path fill="#5C5957" d="M-49.25,31.88l24.154,1.577l24.153,1.577l33.098,3.222l24.958-6.886L26.284-4.812l-30.83-36.182
			L-26.898-4.557L-49.25,31.88z"/>
		<path fill="#5B5956" d="M-49.06,31.902l24.103,1.545l24.104,1.546l32.92,3.159l24.85-6.757L26.165-4.711L-4.586-40.816
			L-26.823-4.457L-49.06,31.902z"/>
		<path fill="#5A5855" d="M-48.869,31.925l24.052,1.514l24.052,1.514l32.744,3.098l24.741-6.63L26.047-4.61l-30.673-36.03
			L-26.749-4.358L-48.869,31.925z"/>
		<path fill="#595755" d="M-48.679,31.947l24.001,1.482l24.001,1.482l32.568,3.034l24.632-6.502L25.929-4.51L-4.667-40.466
			L-26.673-4.259L-48.679,31.947z"/>
		<path fill="#595654" d="M-48.489,31.97l23.951,1.45l23.951,1.452l32.391,2.971l24.523-6.373L25.81-4.41L-4.708-40.289
			l-21.891,36.13L-48.489,31.97z"/>
		<path fill="#585553" d="M-48.299,31.993l23.9,1.418l23.9,1.42l32.214,2.908l24.416-6.244L25.691-4.31L-4.748-40.114L-26.523-4.061
			L-48.299,31.993z"/>
		<path fill="#575552" d="M-48.108,32.015l23.85,1.388L-0.41,34.79l32.038,2.846l24.306-6.116L25.574-4.209L-4.788-39.938
			l-21.66,35.977L-48.108,32.015z"/>
		<path fill="#565451" d="M-47.918,32.038l23.799,1.355L-0.32,34.75l31.861,2.782l24.198-5.987L25.455-4.109L-4.828-39.762
			L-26.374-3.862L-47.918,32.038z"/>
		<path fill="#555350" d="M-47.728,32.061l23.748,1.323l23.749,1.325l31.684,2.72l24.089-5.859L25.337-4.009L-4.869-39.587
			l-21.43,35.824L-47.728,32.061z"/>
		<path fill="#555250" d="M-47.538,32.083l23.698,1.293l23.697,1.292l31.508,2.657l23.98-5.731L25.218-3.908L-4.909-39.41
			L-26.223-3.664L-47.538,32.083z"/>
		<path fill="#54514F" d="M-47.347,32.105l23.647,1.261l23.646,1.262l31.331,2.594l23.872-5.603L25.1-3.808L-4.949-39.234
			L-26.148-3.565L-47.347,32.105z"/>
		<path fill="#53504E" d="M-47.157,32.128l23.596,1.229l23.596,1.229l31.155,2.531l23.763-5.475L24.981-3.707L-4.989-39.059
			L-26.074-3.466L-47.157,32.128z"/>
		<path fill="#52504D" d="M-46.967,32.15l23.546,1.197l23.545,1.199l30.978,2.468l23.655-5.346L24.863-3.606L-5.03-38.883
			L-25.999-3.366L-46.967,32.15z"/>
		<path fill="#514F4C" d="M-46.776,32.173l23.495,1.166l23.495,1.167l30.801,2.406l23.546-5.218L24.745-3.507L-5.07-38.708
			L-25.924-3.267L-46.776,32.173z"/>
		<path fill="#514E4B" d="M-46.586,32.195l23.444,1.135l23.444,1.136l30.625,2.343l23.437-5.09L24.627-3.406L-5.11-38.531
			L-25.849-3.168L-46.586,32.195z"/>
		<path fill="#504D4B" d="M-46.396,32.218l23.394,1.104l23.394,1.104l30.448,2.28l23.328-4.962L24.508-3.307L-5.151-38.355
			L-25.773-3.068L-46.396,32.218z"/>
		<path fill="#4F4C4A" d="M-46.206,32.24l23.343,1.071l23.342,1.072l30.271,2.218l23.22-4.833L24.39-3.206L-5.191-38.181
			L-25.699-2.97L-46.206,32.24z"/>
		<path fill="#4E4C49" d="M-46.016,32.263l23.292,1.04l23.292,1.041l30.095,2.154l23.111-4.705L24.271-3.105L-5.231-38.004
			L-25.624-2.871L-46.016,32.263z"/>
		<path fill="#4D4B48" d="M-45.825,32.285l23.241,1.009l23.242,1.009l29.918,2.092l23.002-4.576L24.153-3.005L-5.272-37.828
			L-25.549-2.771L-45.825,32.285z"/>
		<path fill="#4C4A47" d="M-45.635,32.309l23.19,0.977l23.191,0.978l29.741,2.028l22.894-4.448L24.035-2.904L-5.312-37.652
			L-25.474-2.673L-45.635,32.309z"/>
		<path fill="#4C4946" d="M-45.444,32.331l23.14,0.945l23.14,0.945L30.4,36.188l22.785-4.319L23.917-2.804L-5.353-37.477
			L-25.399-2.573L-45.444,32.331z"/>
		<path fill="#4B4846" d="M-45.254,32.353l23.089,0.914l23.089,0.915l29.388,1.902l22.677-4.191L23.798-2.704L-5.393-37.302
			L-25.324-2.474L-45.254,32.353z"/>
		<path fill="#4A4745" d="M-45.064,32.376l23.039,0.882l23.039,0.883l29.211,1.84l22.568-4.063L23.68-2.604L-5.433-37.125
			l-19.816,34.75L-45.064,32.376z"/>
		<path fill="#494744" d="M-44.874,32.398l22.988,0.851l22.988,0.852l29.035,1.777l22.459-3.936L23.562-2.503L-5.474-36.949
			l-19.7,34.674L-44.874,32.398z"/>
		<path fill="#484643" d="M-44.684,32.421l22.937,0.818l22.938,0.82l28.858,1.715L52.4,31.968L23.443-2.403l-28.957-34.37
			L-25.099-2.177L-44.684,32.421z"/>
		<path fill="#484542" d="M-44.494,32.443l22.887,0.787L1.28,34.019l28.681,1.652l22.242-3.679L23.325-2.303L-5.554-36.598
			l-19.47,34.521L-44.494,32.443z"/>
		<path fill="#474441" d="M-44.303,32.466l22.836,0.756l22.836,0.756l28.505,1.59l22.133-3.55l-28.8-34.22l-28.801-34.22
			L-24.949-1.979L-44.303,32.466z"/>
		<path fill="#464341" d="M-44.113,32.488l22.785,0.725l22.785,0.725l28.329,1.526l22.024-3.422L23.088-2.102L-5.635-36.246
			L-24.874-1.879L-44.113,32.488z"/>
		<path fill="#454240" d="M-43.922,32.511l22.734,0.692l22.735,0.694l28.151,1.463l21.916-3.293L22.97-2.002L-5.675-36.07
			L-24.799-1.779L-43.922,32.511z"/>
		<path fill="#44423F" d="M-43.732,32.533l22.684,0.661l22.684,0.662l27.975,1.4l21.807-3.165L22.851-1.901L-5.715-35.895
			L-24.724-1.681L-43.732,32.533z"/>
		<path fill="#44413E" d="M-43.542,32.556l22.633,0.63l22.633,0.63l27.798,1.338l21.699-3.036L22.733-1.801L-5.756-35.719
			L-24.649-1.581L-43.542,32.556z"/>
		<path fill="#43403D" d="M-43.352,32.579l22.583,0.598l22.583,0.599l27.621,1.274l21.59-2.908L22.615-1.7L-5.796-35.543
			L-24.574-1.482L-43.352,32.579z"/>
		<path fill="#423F3C" d="M-43.162,32.601l22.532,0.566l22.532,0.567l27.445,1.213l21.481-2.78L22.496-1.601L-5.836-35.367
			L-24.499-1.384L-43.162,32.601z"/>
		<path fill="#413E3C" d="M-42.972,32.624l22.481,0.534l22.481,0.535l27.269,1.15l21.373-2.652L22.378-1.5L-5.876-35.191
			L-24.424-1.284L-42.972,32.624z"/>
		<path fill="#403E3B" d="M-42.781,32.646l22.431,0.503L2.08,33.653l27.092,1.087l21.264-2.523L22.259-1.399L-5.917-35.016
			L-24.349-1.185L-42.781,32.646z"/>
		<path fill="#403D3A" d="M-42.591,32.669l22.38,0.471l22.379,0.473l26.915,1.024l21.155-2.396L22.141-1.3L-5.958-34.84
			L-24.274-1.086L-42.591,32.669z"/>
		<path fill="#3F3C39" d="M-42.4,32.691l22.329,0.439l22.33,0.441l26.738,0.961l21.047-2.267L22.022-1.199l-28.02-33.465
			L-24.2-0.986L-42.4,32.691z"/>
		<path fill="#3E3B38" d="M-42.21,32.714l22.278,0.408l22.279,0.409l26.561,0.898l20.938-2.139L21.904-1.099l-27.942-33.39
			L-24.124-0.888L-42.21,32.714z"/>
		<path fill="#3D3A37" d="M-42.02,32.736l22.228,0.377l22.228,0.378l26.385,0.836l20.83-2.011L21.786-0.998L-6.079-34.313
			L-24.049-0.788L-42.02,32.736z"/>
		<path fill="#3C3937" d="M-41.83,32.759l22.177,0.346L2.525,33.45l26.208,0.773l20.721-1.883L21.668-0.897L-6.119-34.137
			L-23.975-0.689L-41.83,32.759z"/>
		<path fill="#3C3936" d="M-41.64,32.781l22.127,0.314L2.614,33.41l26.032,0.71l20.612-1.754L21.549-0.798L-6.159-33.961
			L-23.899-0.59L-41.64,32.781z"/>
		<path fill="#3B3835" d="M-41.449,32.804l22.076,0.282l22.076,0.283l25.855,0.647l20.503-1.626L21.431-0.697l-27.63-33.088
			L-23.825-0.491L-41.449,32.804z"/>
		<path fill="#3A3734" d="M-41.259,32.826l22.025,0.251l22.025,0.251l25.678,0.585l20.395-1.498L21.313-0.597L-6.239-33.609
			L-23.75-0.392L-41.259,32.826z"/>
		<path fill="#393633" d="M-41.069,32.849l21.975,0.22l21.975,0.22l25.502,0.521l20.286-1.369L21.194-0.497L-6.28-33.434
			L-23.674-0.292L-41.069,32.849z"/>
		<path fill="#383532" d="M-40.878,32.871l21.924,0.188L2.97,33.247l25.325,0.459l20.178-1.24L21.076-0.396L-6.32-33.258
			L-23.6-0.193L-40.878,32.871z"/>
		<path fill="#373532" d="M-40.688,32.895l21.873,0.155l21.873,0.157l25.148,0.396l20.069-1.112L20.958-0.296L-6.36-33.082
			L-23.525-0.094L-40.688,32.895z"/>
		<path fill="#373431" d="M-40.498,32.916l21.822,0.125l21.822,0.125l24.972,0.333l19.96-0.983L20.839-0.195l-27.24-32.711
			L-23.449,0.005L-40.498,32.916z"/>
		<path fill="#363330" d="M-40.308,32.938l21.772,0.093l21.772,0.095l24.795,0.27l19.852-0.855L20.721-0.095L-6.441-32.73
			L-23.375,0.104L-40.308,32.938z"/>
		<path fill="#35322F" d="M-40.117,32.962l21.721,0.061l21.721,0.063l24.619,0.208l19.743-0.729L20.603,0.005l-27.084-32.56
			L-23.3,0.203L-40.117,32.962z"/>
		<path fill="#34312E" d="M-39.927,32.984l21.671,0.029l21.67,0.03l24.442,0.146l19.634-0.6L20.484,0.105L-6.522-32.379
			L-23.225,0.303L-39.927,32.984z"/>
		<path fill="#33302D" d="M-39.737,33.007l21.62-0.002l21.62-0.001l24.265,0.082l19.525-0.471L20.366,0.206L-6.562-32.203
			L-23.15,0.401L-39.737,33.007z"/>
		<path fill="#33302D" d="M-39.547,33.029l21.569-0.033l21.569-0.033l24.088,0.02l19.417-0.343L20.248,0.306l-26.85-32.333
			L-23.075,0.501L-39.547,33.029z"/>
		<path fill="#322F2C" d="M-39.356,33.052l21.519-0.064l21.519-0.064l23.912-0.045l19.308-0.213L20.129,0.406L-6.643-31.852L-23,0.6
			L-39.356,33.052z"/>
		<path fill="#312E2B" d="M-39.166,33.074l21.468-0.097L3.77,32.882l42.935-0.192L20.011,0.507L-6.683-31.676L-22.925,0.699
			L-39.166,33.074z"/>
	</g>
	<g>
		<path fill="#9BA0A4" d="M-96.783,42.717l33.682,33.785H59.686l33.646-33.785L-1.727-60.852L-96.783,42.717z"/>
	</g>
	<linearGradient id="SVGID_1_" gradientUnits="userSpaceOnUse" x1="51.0811" y1="-18.0303" x2="-30.7433" y2="76.0979">
		<stop  offset="0.0859" style="stop-color:#FFFFFF"/>
		<stop  offset="0.4049" style="stop-color:#C3C6C9"/>
		<stop  offset="0.6687" style="stop-color:#9BA0A4"/>
		<stop  offset="0.8806" style="stop-color:#999EA2"/>
		<stop  offset="0.9568" style="stop-color:#91979C"/>
		<stop  offset="1" style="stop-color:#888E93"/>
	</linearGradient>
	<polygon fill="url(#SVGID_1_)" points="-96.783,42.717 -1.727,-54.125 93.332,42.717 	"/>
	<defs>
		<filter id="Adobe_OpacityMaskFilter" filterUnits="userSpaceOnUse" x="-94.268" y="-74.039" width="183.885" height="75.152">
			
				<feColorMatrix  type="matrix" values="-1 0 0 0 1  0 -1 0 0 1  0 0 -1 0 1  0 0 0 1 0" color-interpolation-filters="sRGB" result="source"/>
		</filter>
	</defs>
	<mask maskUnits="userSpaceOnUse" x="-94.268" y="-74.039" width="183.885" height="75.152" id="SVGID_2_">
		<g filter="url(#Adobe_OpacityMaskFilter)">
			
				<radialGradient id="SVGID_3_" cx="470.6655" cy="-3620.1997" r="91.149" gradientTransform="matrix(1.0554 0 0 1.7764 -498.3408 6400.79)" gradientUnits="userSpaceOnUse">
				<stop  offset="0.1472" style="stop-color:#52555B"/>
				<stop  offset="0.401" style="stop-color:#81848A"/>
				<stop  offset="0.8137" style="stop-color:#D4D5D8"/>
				<stop  offset="1" style="stop-color:#FFFFFF"/>
			</radialGradient>
			<polygon fill="url(#SVGID_3_)" points="119.135,-135.668 -122.335,-135.668 -122.335,75.402 119.135,75.402 			"/>
		</g>
	</mask>
	<path mask="url(#SVGID_2_)" fill="#FFFFFF" d="M-51.978-1.113c0,0,18.002,26.252,124.437,24.998l17.159,18.832L58.47,74.039
		H-61.908c-17.029-15.709-32.36-31.514-32.36-31.514C-82.691,30.25-51.978-1.113-51.978-1.113z"/>
	<polygon fill="#FFFFFF" points="70.174,19.313 -1.756,-53.842 -1.756,-60.967 93.332,42.717 	"/>
	<linearGradient id="SVGID_4_" gradientUnits="userSpaceOnUse" x1="-62.9932" y1="75.8364" x2="-96.13" y2="42.6996">
		<stop  offset="0.0736" style="stop-color:#EBEBEC"/>
		<stop  offset="0.3766" style="stop-color:#B7BABD"/>
		<stop  offset="0.6688" style="stop-color:#94999E"/>
		<stop  offset="0.8344" style="stop-color:#888E93"/>
		<stop  offset="0.9265" style="stop-color:#8A9095"/>
		<stop  offset="0.9597" style="stop-color:#91979C"/>
		<stop  offset="0.9833" style="stop-color:#9EA3A7"/>
		<stop  offset="1" style="stop-color:#B0B3B7"/>
	</linearGradient>
	<polygon fill="url(#SVGID_4_)" points="-63.101,76.502 -62.659,75.592 -95.34,42.717 -96.783,42.717 	"/>
	
		<linearGradient id="SVGID_5_" gradientUnits="userSpaceOnUse" x1="16169.7363" y1="59.8359" x2="16170.5977" y2="58.9745" gradientTransform="matrix(-1 0 0 1 16246.3984 0)">
		<stop  offset="0" style="stop-color:#FFFFFF"/>
		<stop  offset="0.4244" style="stop-color:#E1E2E3"/>
		<stop  offset="0.8712" style="stop-color:#D1D3D5"/>
	</linearGradient>
	<polygon fill="url(#SVGID_5_)" points="59.542,76.502 59.208,75.592 91.889,42.717 93.332,42.717 	"/>
	<linearGradient id="SVGID_6_" gradientUnits="userSpaceOnUse" x1="75.3247" y1="76.0469" x2="-75.27" y2="76.0469">
		<stop  offset="0" style="stop-color:#485058"/>
		<stop  offset="0.4044" style="stop-color:#5E646C"/>
		<stop  offset="1" style="stop-color:#7D8086"/>
	</linearGradient>
	<polygon fill="url(#SVGID_6_)" points="-63.101,76.502 -62.659,75.592 59.202,75.592 59.688,76.502 	"/>
	<linearGradient id="SVGID_7_" gradientUnits="userSpaceOnUse" x1="-17.896" y1="-9.125" x2="-103.3583" y2="-9.125">
		<stop  offset="0.1166" style="stop-color:#FFFFFF"/>
		<stop  offset="0.2456" style="stop-color:#C8CACC"/>
		<stop  offset="0.3881" style="stop-color:#91969B"/>
		<stop  offset="0.5113" style="stop-color:#697076"/>
		<stop  offset="0.6089" style="stop-color:#515960"/>
		<stop  offset="0.6687" style="stop-color:#485058"/>
		<stop  offset="1" style="stop-color:#485058"/>
	</linearGradient>
	<path fill="url(#SVGID_7_)" d="M-96.783,42.717h1.443c0,0,48.939-52.426,93.583-96.559v-7.125L-96.783,42.717z"/>
	<defs>
		<filter id="Adobe_OpacityMaskFilter_1_" filterUnits="userSpaceOnUse" x="-93.078" y="-74.066" width="182.699" height="31.35">
			<feColorMatrix  type="matrix" values="1 0 0 0 0  0 1 0 0 0  0 0 1 0 0  0 0 0 1 0"/>
		</filter>
	</defs>
	<mask maskUnits="userSpaceOnUse" x="-93.078" y="-74.066" width="182.699" height="31.35" id="SVGID_8_">
		<g filter="url(#Adobe_OpacityMaskFilter_1_)">
			<linearGradient id="SVGID_9_" gradientUnits="userSpaceOnUse" x1="-64.1567" y1="130.0264" x2="36.2352" y2="1.1349">
				<stop  offset="0.1963" style="stop-color:#FFFFFF"/>
				<stop  offset="0.2239" style="stop-color:#ECECEC"/>
				<stop  offset="0.2801" style="stop-color:#B9B9B9"/>
				<stop  offset="0.3601" style="stop-color:#686868"/>
				<stop  offset="0.454" style="stop-color:#000000"/>
			</linearGradient>
			<polygon fill="url(#SVGID_9_)" points="111.113,9.537 -113.137,9.537 -113.137,88.375 111.113,88.375 			"/>
			<linearGradient id="SVGID_10_" gradientUnits="userSpaceOnUse" x1="55.1626" y1="78.231" x2="30.3244" y2="4.9982">
				<stop  offset="0" style="stop-color:#FFFFFF"/>
				<stop  offset="0.0464" style="stop-color:#D7D7D7;stop-opacity:0.8934"/>
				<stop  offset="0.1276" style="stop-color:#969696;stop-opacity:0.7071"/>
				<stop  offset="0.2051" style="stop-color:#616161;stop-opacity:0.5292"/>
				<stop  offset="0.2767" style="stop-color:#373737;stop-opacity:0.3648"/>
				<stop  offset="0.3412" style="stop-color:#191919;stop-opacity:0.2167"/>
				<stop  offset="0.3963" style="stop-color:#070707;stop-opacity:0.0902"/>
				<stop  offset="0.4356" style="stop-color:#000000;stop-opacity:0"/>
			</linearGradient>
			<polygon fill="url(#SVGID_10_)" points="141.905,51.959 65.238,7.959 -40.281,78.846 53.571,94.959 			"/>
			
				<linearGradient id="SVGID_11_" gradientUnits="userSpaceOnUse" x1="18495.4297" y1="-3253.4346" x2="18481.209" y2="-3299.8198" gradientTransform="matrix(-0.9368 0.35 0.35 0.9368 18494.3828 -3356.8281)">
				<stop  offset="0" style="stop-color:#FFFFFF"/>
				<stop  offset="0.0199" style="stop-color:#F4F4F4;stop-opacity:0.9801"/>
				<stop  offset="0.1349" style="stop-color:#BCBCBC;stop-opacity:0.8651"/>
				<stop  offset="0.2534" style="stop-color:#8A8A8A;stop-opacity:0.7466"/>
				<stop  offset="0.3728" style="stop-color:#5F5F5F;stop-opacity:0.6272"/>
				<stop  offset="0.4931" style="stop-color:#3D3D3D;stop-opacity:0.5069"/>
				<stop  offset="0.6149" style="stop-color:#222222;stop-opacity:0.3851"/>
				<stop  offset="0.7385" style="stop-color:#0F0F0F;stop-opacity:0.2615"/>
				<stop  offset="0.8652" style="stop-color:#040404;stop-opacity:0.1348"/>
				<stop  offset="1" style="stop-color:#000000;stop-opacity:0"/>
			</linearGradient>
			<polygon fill="url(#SVGID_11_)" points="-2.929,61.959 89.905,42.959 -34.762,41.625 			"/>
			
				<linearGradient id="SVGID_12_" gradientUnits="userSpaceOnUse" x1="14777.792" y1="-17053.0352" x2="14756.749" y2="-17121.6738" gradientTransform="matrix(-0.994 -0.2483 0.1584 -1.1328 17386.3633 -15626.9102)">
				<stop  offset="0.0675" style="stop-color:#FFFFFF"/>
				<stop  offset="0.0861" style="stop-color:#F4F4F4;stop-opacity:0.9801"/>
				<stop  offset="0.1933" style="stop-color:#BCBCBC;stop-opacity:0.8651"/>
				<stop  offset="0.3038" style="stop-color:#8A8A8A;stop-opacity:0.7466"/>
				<stop  offset="0.4151" style="stop-color:#5F5F5F;stop-opacity:0.6272"/>
				<stop  offset="0.5273" style="stop-color:#3D3D3D;stop-opacity:0.5069"/>
				<stop  offset="0.6409" style="stop-color:#222222;stop-opacity:0.3851"/>
				<stop  offset="0.7561" style="stop-color:#0F0F0F;stop-opacity:0.2615"/>
				<stop  offset="0.8743" style="stop-color:#040404;stop-opacity:0.1348"/>
				<stop  offset="1" style="stop-color:#000000;stop-opacity:0"/>
			</linearGradient>
			<polygon fill="url(#SVGID_12_)" points="-56.053,62.951 58.904,68.959 -40.281,39.959 			"/>
			
				<linearGradient id="SVGID_13_" gradientUnits="userSpaceOnUse" x1="3802.207" y1="-19161.0605" x2="3732.6521" y2="-18969.2754" gradientTransform="matrix(0.923 0.3848 0.3848 -0.923 3815.9941 -18993.4883)">
				<stop  offset="0.1166" style="stop-color:#FFFFFF"/>
				<stop  offset="0.1635" style="stop-color:#F7F7F7;stop-opacity:0.9141"/>
				<stop  offset="0.2357" style="stop-color:#E2E2E2;stop-opacity:0.7819"/>
				<stop  offset="0.3242" style="stop-color:#BEBEBE;stop-opacity:0.6197"/>
				<stop  offset="0.4256" style="stop-color:#8D8D8D;stop-opacity:0.434"/>
				<stop  offset="0.5379" style="stop-color:#4E4E4E;stop-opacity:0.2283"/>
				<stop  offset="0.6578" style="stop-color:#030303;stop-opacity:0.0087"/>
				<stop  offset="0.6626" style="stop-color:#000000;stop-opacity:0"/>
			</linearGradient>
			<polygon fill="url(#SVGID_13_)" points="-22.929,72.959 -63.596,47.291 -58.596,67.291 			"/>
		</g>
	</mask>
	<polygon mask="url(#SVGID_8_)" fill="#FFFFFF" points="-61.927,74.066 -93.078,42.717 89.621,42.717 58.47,74.066 	"/>
	<linearGradient id="SVGID_14_" gradientUnits="userSpaceOnUse" x1="-1.0659" y1="-55.436" x2="-44.0834" y2="46.344">
		<stop  offset="0.4233" style="stop-color:#FFFFFF"/>
		<stop  offset="0.9135" style="stop-color:#8F9499"/>
		<stop  offset="0.9509" style="stop-color:#888E93"/>
	</linearGradient>
	<path fill="url(#SVGID_14_)" d="M-31.541,11.055l29.813-65.568l-25.708,67.08C-29.744,11.65-30.787,11.369-31.541,11.055z"/>
	<linearGradient id="SVGID_15_" gradientUnits="userSpaceOnUse" x1="33.6675" y1="-4.5361" x2="-38.7948" y2="39.0008">
		<stop  offset="0.4233" style="stop-color:#FFFFFF"/>
		<stop  offset="0.9135" style="stop-color:#8F9499"/>
		<stop  offset="0.9509" style="stop-color:#888E93"/>
	</linearGradient>
	<path fill="url(#SVGID_15_)" d="M-7.154,17.881L33.159-2.934L-1.778,18.869C-3.663,18.494-7.154,17.881-7.154,17.881z"/>
	<defs>
		<filter id="Adobe_OpacityMaskFilter_2_" filterUnits="userSpaceOnUse" x="58.47" y="-75.592" width="33.416" height="32.875">
			<feColorMatrix  type="matrix" values="1 0 0 0 0  0 1 0 0 0  0 0 1 0 0  0 0 0 1 0"/>
		</filter>
	</defs>
	<mask maskUnits="userSpaceOnUse" x="58.47" y="-75.592" width="33.416" height="32.875" id="SVGID_16_">
		<g filter="url(#Adobe_OpacityMaskFilter_2_)">
			<linearGradient id="SVGID_17_" gradientUnits="userSpaceOnUse" x1="96.0103" y1="38.8691" x2="51.5938" y2="85.165">
				<stop  offset="0" style="stop-color:#FFFFFF"/>
				<stop  offset="0.1011" style="stop-color:#F9F8F8"/>
				<stop  offset="0.2446" style="stop-color:#E6E6E6"/>
				<stop  offset="0.4136" style="stop-color:#C9C8C7"/>
				<stop  offset="0.6018" style="stop-color:#9F9E9D"/>
				<stop  offset="0.8034" style="stop-color:#6B6967"/>
				<stop  offset="1" style="stop-color:#312E2B"/>
			</linearGradient>
			<polygon fill="url(#SVGID_17_)" points="112.571,40.625 36.904,40.625 36.904,81.459 112.571,81.459 			"/>
		</g>
	</mask>
	<polygon mask="url(#SVGID_16_)" fill="#FFFFFF" points="59.202,75.592 58.47,74.066 89.621,42.717 91.886,42.717 	"/>
	<defs>
		<filter id="Adobe_OpacityMaskFilter_3_" filterUnits="userSpaceOnUse" x="-95.343" y="-75.592" width="33.416" height="32.875">
			<feColorMatrix  type="matrix" values="1 0 0 0 0  0 1 0 0 0  0 0 1 0 0  0 0 0 1 0"/>
		</filter>
	</defs>
	<mask maskUnits="userSpaceOnUse" x="-95.343" y="-75.592" width="33.416" height="32.875" id="SVGID_18_">
		<g filter="url(#Adobe_OpacityMaskFilter_3_)">
			
				<linearGradient id="SVGID_19_" gradientUnits="userSpaceOnUse" x1="16089.8945" y1="38.8687" x2="16045.4775" y2="85.165" gradientTransform="matrix(-1 0 0 1 15990.4258 0)">
				<stop  offset="0.092" style="stop-color:#FFFFFF"/>
				<stop  offset="0.3959" style="stop-color:#ACABAA"/>
				<stop  offset="0.8282" style="stop-color:#312E2B"/>
			</linearGradient>
			<polygon fill="url(#SVGID_19_)" points="-116.028,40.625 -40.361,40.625 -40.361,81.459 -116.028,81.459 			"/>
		</g>
	</mask>
	<polygon mask="url(#SVGID_18_)" fill="#FFFFFF" points="-62.659,75.592 -61.927,74.066 -93.078,42.717 -95.343,42.717 	"/>
	<defs>
		<filter id="Adobe_OpacityMaskFilter_4_" filterUnits="userSpaceOnUse" x="-93.078" y="-74.039" width="45.941" height="31.322">
			<feColorMatrix  type="matrix" values="1 0 0 0 0  0 1 0 0 0  0 0 1 0 0  0 0 0 1 0"/>
		</filter>
	</defs>
	<mask maskUnits="userSpaceOnUse" x="-93.078" y="-74.039" width="45.941" height="31.322" id="SVGID_20_">
		<g filter="url(#Adobe_OpacityMaskFilter_4_)">
			<linearGradient id="SVGID_21_" gradientUnits="userSpaceOnUse" x1="-92.5366" y1="90.4585" x2="-61.6529" y2="51.4688">
				<stop  offset="0" style="stop-color:#FFFFFF"/>
				<stop  offset="0.0666" style="stop-color:#E3E4E5"/>
				<stop  offset="0.2123" style="stop-color:#B2B4B6"/>
				<stop  offset="0.3577" style="stop-color:#8A8C8F"/>
				<stop  offset="0.4995" style="stop-color:#6B6D6F"/>
				<stop  offset="0.6369" style="stop-color:#505052"/>
				<stop  offset="0.7686" style="stop-color:#353536"/>
				<stop  offset="0.8923" style="stop-color:#131313"/>
				<stop  offset="1" style="stop-color:#000000"/>
			</linearGradient>
			<polygon fill="url(#SVGID_21_)" points="-40.137,82.25 -96.783,82.25 -96.783,37.875 -40.137,37.875 			"/>
		</g>
	</mask>
	<polygon mask="url(#SVGID_20_)" fill="#FFFFFF" points="-61.908,74.039 -47.137,42.717 -93.078,42.717 	"/>
	<g>
		<polygon fill="#FFFFFF" points="33.159,-2.934 -34.979,32.252 -1.727,-54.514 -41.182,32.252 -52.516,19.488 -46.262,36.125 
			-95.343,42.717 -47.137,42.717 -58.706,67.086 -42.262,46.959 -20.132,75.014 -34.911,47.354 11.249,71.713 -30.476,42.717 
			91.886,42.717 -30.476,36.781 		"/>
	</g>
</symbol>
<g>
	<g>
		<g>
			<g>
				<path d="M23.948,177.1h13.65c10.403,0,16.396,4.141,16.396,12.402c0,4.199-2.194,7.664-6.271,9.992
					c5.351,3.199,7.471,5.869,7.471,11.857c0,9.547-6.762,13.867-17.049,13.867H23.948V177.1z M33.647,196.16h3.377
					c4.365,0,7.247-2.395,7.247-5.658c0-3.537-2.169-5.795-6.743-5.795h-3.881V196.16z M33.647,217.617h4.088
					c5.066,0,7.737-2.801,7.737-6.984c0-4.602-3.371-6.869-8.449-6.869h-3.377V217.617z"/>
				<path d="M57.046,225.219L69.64,177.1h12.461l12.246,48.119h-9.288l-2.47-10.131H69.152l-2.744,10.131H57.046z M70.91,206.961
					h9.637L75.84,187.51h-0.139L70.91,206.961z"/>
				<path d="M98.925,225.219V177.1h10.631l13.515,28.529h0.13V177.1h8.877v48.119h-9.29l-14.852-31.049h-0.142v31.049H98.925z"/>
				<path d="M164.421,221.666c-2.606,2.797-5.421,4.662-9.087,4.662c-9.423,0-16.038-4.264-16.038-16.125v-17.201
					c0-11.855,6.615-16.121,16.038-16.121c9.921,0,15.273,5.398,15.624,16.326h-9.704c0-6.191-2.388-8.189-5.92-8.189
					c-3.866,0-6.332,1.463-6.332,6.791v19.598c0,5.33,2.466,6.803,6.332,6.803c3.666,0,5.92-2.547,5.92-6.684v-2.916h-6.827v-7.604
					h16.531v24.652h-5.066L164.421,221.666z"/>
				<path d="M177.781,225.219V177.1h9.72v19.869h0.146l12.587-19.869h10.628l-13.092,19.402l14.574,28.717h-10.91l-10.131-20.189
					l-3.802,5.463v14.727H177.781z"/>
				<path d="M212.793,192.564c0-11.865,6.624-16.125,16.046-16.125c9.432,0,16.05,4.26,16.05,16.125v17.199
					c0,11.863-6.618,16.125-16.05,16.125c-9.422,0-16.046-4.262-16.046-16.125V192.564z M222.504,210.965
					c0,5.324,2.468,6.795,6.335,6.795c3.866,0,6.333-1.471,6.333-6.795v-19.596c0-5.33-2.467-6.803-6.333-6.803
					c-3.867,0-6.335,1.473-6.335,6.803V210.965z"/>
				<path d="M250.797,225.219V177.1h9.717v19.869h0.146l12.595-19.869h10.627l-13.09,19.402l14.573,28.717h-10.917l-10.139-20.189
					l-3.796,5.463v14.727H250.797z"/>
			</g>
			<g>
				<path d="M31.221,232.639v27.576c0,3.77,1.672,5.732,5.412,5.732c3.76,0,5.489-1.963,5.489-5.732v-27.576h7.721v27.627
					c0,8.686-5.262,12.344-13.21,12.344c-7.933,0-13.14-3.658-13.14-12.344v-27.627H31.221z"/>
				<path d="M55.354,272.063v-39.424h8.439l10.749,23.363h0.11v-23.363h7.047v39.424h-7.382l-11.801-25.457h-0.112v25.457H55.354z"
					/>
				<path d="M87.639,272.063v-39.424h7.714v39.424H87.639z"/>
				<path d="M98.925,232.639h7.607l7.106,28.178h0.113l7.045-28.178h7.556l-10.293,39.424h-8.785L98.925,232.639z"/>
				<path d="M131.812,272.063v-39.424h21.15v6.656h-13.421v9.064h10.23v6.67h-10.23v10.373h13.979v6.66H131.812z"/>
				<path d="M175.62,272.063l-6.712-16.061h-3.697v16.061h-7.71v-39.424h11.188c9.276,0,13.69,4.367,13.69,11.791
					c0,4.91-1.781,8.463-6.079,10.049l7.595,17.584H175.62z M165.211,249.779h3.977c3.408,0,5.482-1.645,5.482-5.461
					c0-3.82-2.074-5.457-5.482-5.457h-3.977V249.779z"/>
				<path d="M204.045,243.611c-1.288-3.719-2.962-5.301-5.653-5.301c-2.744,0-4.245,1.637-4.245,4.313
					c0,5.953,17.229,6.4,17.229,18.732c0,6.773-4.754,11.254-12.87,11.254c-6.266,0-11.128-3.326-13.201-11.088l7.612-1.584
					c0.89,4.76,3.69,6.445,5.985,6.445c2.686,0,4.75-1.75,4.75-4.693c0-7.428-17.229-7.545-17.229-18.572
					c0-6.775,4.149-11.023,12.143-11.023c6.885,0,11.077,3.98,12.411,9.543L204.045,243.611z"/>
				<path d="M215.035,272.063v-39.424h7.717v39.424H215.035z"/>
				<path d="M252.547,232.639v6.656h-9.021v32.768h-7.705v-32.768h-9.013v-6.656H252.547z"/>
				<path d="M270.595,248.535l6.533-15.896h8.237l-11.025,23.477v15.947h-7.72v-15.947l-11.017-23.477h8.219L270.595,248.535z"/>
			</g>
		</g>
		<g>
			<g>
				<g>
					<path d="M29.866,289.977v13.73h-1.771v-13.73h-4.771v-1.426h11.312v1.426H29.866z"/>
					<path d="M48.057,288.551v15.156h-1.772v-7.227h-7.636v7.227h-1.771v-15.156h1.771v6.5h7.636v-6.5H48.057z"/>
					<path d="M61.42,288.551v1.426h-7.8v5.074h5.541v1.43H53.62v5.795h8.24v1.432H51.851v-15.156H61.42z"/>
					<path d="M79.797,299.166c-0.707,2.816-2.346,4.75-5.61,4.75c-3.583,0-6.102-2.479-6.102-7.789c0-4.932,2.258-7.795,6.102-7.795
						c2.96,0,4.68,1.645,5.385,4.414l-1.636,0.467c-0.574-2.146-1.584-3.449-3.973-3.449c-2.299,0-4.11,2.016-4.11,6.363
						c0,4.393,1.811,6.359,4.464,6.359c2.449,0,3.405-1.766,3.887-3.607L79.797,299.166z"/>
					<path d="M82.152,303.707v-15.156h5.123c3.452,0,5.325,1.465,5.325,3.984c0,2.146-1.305,3.361-3.184,3.945l3.379,7.227h-1.922
						l-3.219-6.889H83.92v6.889H82.152z M83.92,295.387h3.204c2.427,0,3.708-0.855,3.708-2.77c0-2.033-1.457-2.641-3.735-2.641
						H83.92V295.387z"/>
					<path d="M105.421,288.551v1.426H97.62v5.074h5.548v1.43H97.62v5.795h8.241v1.432H95.854v-15.156H105.421z"/>
					<path d="M107.475,303.707l4.905-15.156h2.626l4.909,15.156h-1.856l-1.5-4.744h-5.725l-1.503,4.744H107.475z M111.274,297.531
						h4.834l-2.293-7.807h-0.241L111.274,297.531z"/>
					<path d="M125.63,289.977v13.73h-1.773v-13.73h-4.77v-1.426h11.309v1.426H125.63z"/>
					<path d="M134.607,288.551v15.156h-1.767v-15.156H134.607z"/>
					<path d="M136.993,288.551h1.765l3.933,12.422h0.041l3.961-12.422h1.787l-4.947,15.156h-1.617L136.993,288.551z"/>
					<path d="M160.243,288.551v1.426h-7.8v5.074h5.541v1.43h-5.541v5.795h8.243v1.432h-10.012v-15.156H160.243z"/>
					<path d="M170.139,288.551v10.703c0,1.762,1.323,3.232,3.817,3.232c2.498,0,3.825-1.471,3.825-3.232v-10.703h1.765v10.576
						c0,3.023-2.297,4.789-5.59,4.789c-3.292,0-5.587-1.766-5.587-4.789v-10.576H170.139z"/>
					<path d="M183.312,303.707v-15.156h2.543l6.958,11.672h0.088v-11.672h1.594v15.156h-1.459l-8.085-13.52h-0.042v13.52H183.312z"
						/>
					<path d="M200.25,288.551v15.156h-1.767v-15.156H200.25z"/>
					<path d="M202.638,288.551h1.769l3.93,12.422h0.046l3.962-12.422h1.783l-4.948,15.156h-1.613L202.638,288.551z"/>
					<path d="M225.886,288.551v1.426h-7.801v5.074h5.549v1.43h-5.549v5.795h8.244v1.432h-10.007v-15.156H225.886z"/>
					<path d="M228.801,303.707v-15.156h5.124c3.445,0,5.322,1.465,5.322,3.984c0,2.146-1.301,3.361-3.179,3.945l3.376,7.227h-1.913
						l-3.232-6.889h-3.732v6.889H228.801z M230.566,295.387h3.205c2.431,0,3.707-0.855,3.707-2.77c0-2.033-1.458-2.641-3.734-2.641
						h-3.178V295.387z"/>
					<path d="M250.286,292.41c-0.401-1.473-1.652-2.646-3.709-2.646c-1.855,0-2.963,0.842-2.984,2.35
						c-0.042,3.32,8.966,2.479,8.966,7.35c0,2.201-1.299,4.453-5.364,4.453c-3.493,0-4.86-2.141-5.697-3.951l1.608-0.539
						c0.641,1.59,1.835,3.061,4.183,3.061c2.336,0,3.509-1.174,3.509-2.727c0-3.863-8.967-2.732-8.967-7.518
						c0-2.184,1.916-3.91,4.79-3.91c2.481,0,4.421,1.242,5.258,3.742L250.286,292.41z"/>
					<path d="M257.328,288.551v15.156h-1.764v-15.156H257.328z"/>
					<path d="M266.308,289.977v13.73h-1.769v-13.73h-4.773v-1.426h11.31v1.426H266.308z"/>
					<path d="M277.186,297.322l-4.902-8.771h1.941l3.845,6.941l3.847-6.941h1.939l-4.902,8.771v6.385h-1.768V297.322z"/>
				</g>
			</g>
		</g>
	</g>
	
		<use xlink:href="#NewDiamond"  width="193.566" height="153.004" x="-96.783" y="-76.502" transform="matrix(0.9624 0 0 -0.9396 154.3447 77.9629)" overflow="visible"/>
</g>
</svg>
